<svg xmlns="http://www.w3.org/2000/svg" width="64" height="64" viewBox="0 0 64 64" shape-rendering="crispEdges">
<!-- chibi 2-head female body -->
<path fill="#2b211e" d="M15 14h3V9h5V6h18v3h5v5h3v15h-4v9h4v7h-5v5h-4v14H34V49h-4v15H20V50h-5v-7h4v-9h-4z"/>
<path fill="#f2c6a5" d="M19 14V10h5V8h16v2h5v4h2v12h-4v5H21v-5h-4V14zm4 19h18v8H23zm-7 1h7v9h-3v4h-5v-7h1zm26 0h5v6h2v7h-5v-4h-2zm-19 8h7v17h-7zm11 0h7v17h-7z"/>
<path fill="#dfa17d" d="M17 16h3v8h-3zm30 0h3v8h-3zm-29 19h3v7h-3zm26 0h3v7h-3z"/>
</svg>