<svg xmlns="http://www.w3.org/2000/svg" width="64" height="64" viewBox="0 0 64 64" shape-rendering="crispEdges">
<g fill="#f2c6a5">
  <rect x="22" y="4" width="20" height="22"/>
  <rect x="18" y="10" width="4" height="14"/><rect x="42" y="10" width="4" height="14"/>
  <rect x="19" y="26" width="26" height="15"/>
  <rect x="21" y="41" width="9" height="17"/><rect x="34" y="41" width="9" height="17"/>
</g>
<g fill="#5b392c">
  <rect x="22" y="4" width="20" height="4"/><rect x="18" y="8" width="4" height="12"/><rect x="42" y="8" width="4" height="12"/>
</g>
<g fill="#2b2220">
  <rect x="25" y="14" width="4" height="4"/><rect x="35" y="14" width="4" height="4"/>
  <rect x="29" y="20" width="6" height="2"/>
</g>
<g fill="#e9b993">
  <rect x="19" y="28" width="4" height="12"/><rect x="41" y="28" width="4" height="12"/>
  <rect x="24" y="41" width="6" height="3"/><rect x="34" y="41" width="6" height="3"/>
</g>
</svg>