<svg xmlns="http://www.w3.org/2000/svg" width="256" height="256" viewBox="0 0 256 256" shape-rendering="crispEdges"><g transform="translate(0 0)"><rect x="16" y="53" width="32" height="4" fill="#4a382b"/><rect x="20" y="9" width="24" height="8" fill="#30212a"/><rect x="16" y="17" width="8" height="12" fill="#30212a"/><rect x="12" y="21" width="8" height="12" fill="#53313a"/><rect x="16" y="29" width="8" height="8" fill="#30212a"/><rect x="28" y="7" width="12" height="4" fill="#b82f32"/><rect x="36" y="7" width="4" height="4" fill="#f06448"/><rect x="20" y="13" width="24" height="20" fill="#30212a"/><rect x="16" y="17" width="32" height="16" fill="#30212a"/><rect x="20" y="17" width="24" height="16" fill="#f6c18a"/><rect x="20" y="29" width="24" height="4" fill="#d98b60"/><rect x="16" y="17" width="8" height="8" fill="#30212a"/><rect x="20" y="13" width="20" height="4" fill="#53313a"/><rect x="24" y="9" width="16" height="4" fill="#30212a"/><rect x="20" y="21" width="8" height="4" fill="#30212a"/><rect x="32" y="21" width="8" height="4" fill="#30212a"/><rect x="24" y="25" width="4" height="4" fill="#30212a"/><rect x="36" y="25" width="4" height="4" fill="#30212a"/><rect x="28" y="29" width="8" height="2" fill="#bd5d50"/><rect x="20" y="33" width="24" height="4" fill="#b82f32"/><rect x="16" y="35" width="12" height="4" fill="#76242b"/><rect x="12" y="39" width="8" height="4" fill="#b82f32"/><rect x="20" y="37" width="24" height="12" fill="#e6dfcf"/><rect x="16" y="39" width="8" height="8" fill="#a6a9a5"/><rect x="40" y="39" width="8" height="8" fill="#a6a9a5"/><rect x="24" y="37" width="4" height="12" fill="#b82f32"/><rect x="32" y="37" width="4" height="12" fill="#76242b"/><rect x="28" y="41" width="8" height="4" fill="#d6a14b"/><rect x="12" y="39" width="8" height="8" fill="#f6c18a"/><rect x="44" y="39" width="8" height="8" fill="#f6c18a"/><rect x="20" y="49" width="8" height="4" fill="#382a31"/><rect x="36" y="49" width="8" height="4" fill="#382a31"/><rect x="20" y="53" width="8" height="4" fill="#29232c"/><rect x="36" y="53" width="8" height="4" fill="#29232c"/><rect x="44" y="41" width="12" height="4" fill="#d7e3e8"/><rect x="56" y="37" width="4" height="8" fill="#7e929e"/><rect x="44" y="45" width="8" height="4" fill="#d6a14b"/></g><g transform="translate(64 0)"><rect x="16" y="53" width="32" height="4" fill="#4a382b"/><rect x="20" y="9" width="24" height="8" fill="#30212a"/><rect x="16" y="17" width="8" height="12" fill="#30212a"/><rect x="12" y="21" width="8" height="12" fill="#53313a"/><rect x="16" y="29" width="8" height="8" fill="#30212a"/><rect x="28" y="7" width="12" height="4" fill="#b82f32"/><rect x="36" y="7" width="4" height="4" fill="#f06448"/><rect x="20" y="13" width="24" height="20" fill="#30212a"/><rect x="16" y="17" width="32" height="16" fill="#30212a"/><rect x="20" y="17" width="24" height="16" fill="#f6c18a"/><rect x="20" y="29" width="24" height="4" fill="#d98b60"/><rect x="16" y="17" width="8" height="8" fill="#30212a"/><rect x="20" y="13" width="20" height="4" fill="#53313a"/><rect x="24" y="9" width="16" height="4" fill="#30212a"/><rect x="20" y="21" width="8" height="4" fill="#30212a"/><rect x="32" y="21" width="8" height="4" fill="#30212a"/><rect x="24" y="25" width="4" height="4" fill="#30212a"/><rect x="36" y="25" width="4" height="4" fill="#30212a"/><rect x="28" y="29" width="8" height="2" fill="#bd5d50"/><rect x="20" y="33" width="24" height="4" fill="#b82f32"/><rect x="20" y="35" width="12" height="4" fill="#76242b"/><rect x="16" y="39" width="8" height="4" fill="#b82f32"/><rect x="20" y="37" width="24" height="12" fill="#e6dfcf"/><rect x="16" y="39" width="8" height="8" fill="#a6a9a5"/><rect x="40" y="39" width="8" height="8" fill="#a6a9a5"/><rect x="24" y="37" width="4" height="12" fill="#b82f32"/><rect x="32" y="37" width="4" height="12" fill="#76242b"/><rect x="28" y="41" width="8" height="4" fill="#d6a14b"/><rect x="12" y="35" width="8" height="8" fill="#f6c18a"/><rect x="44" y="43" width="8" height="8" fill="#f6c18a"/><rect x="20" y="49" width="8" height="4" fill="#382a31"/><rect x="36" y="45" width="8" height="4" fill="#382a31"/><rect x="16" y="53" width="12" height="4" fill="#29232c"/><rect x="36" y="49" width="12" height="4" fill="#29232c"/><rect x="44" y="41" width="12" height="4" fill="#d7e3e8"/><rect x="56" y="37" width="4" height="8" fill="#7e929e"/><rect x="44" y="45" width="8" height="4" fill="#d6a14b"/></g><g transform="translate(128 0)"><rect x="16" y="53" width="32" height="4" fill="#4a382b"/><rect x="20" y="9" width="24" height="8" fill="#30212a"/><rect x="16" y="17" width="8" height="12" fill="#30212a"/><rect x="12" y="21" width="8" height="12" fill="#53313a"/><rect x="16" y="29" width="8" height="8" fill="#30212a"/><rect x="28" y="7" width="12" height="4" fill="#b82f32"/><rect x="36" y="7" width="4" height="4" fill="#f06448"/><rect x="20" y="13" width="24" height="20" fill="#30212a"/><rect x="16" y="17" width="32" height="16" fill="#30212a"/><rect x="20" y="17" width="24" height="16" fill="#f6c18a"/><rect x="20" y="29" width="24" height="4" fill="#d98b60"/><rect x="16" y="17" width="8" height="8" fill="#30212a"/><rect x="20" y="13" width="20" height="4" fill="#53313a"/><rect x="24" y="9" width="16" height="4" fill="#30212a"/><rect x="20" y="21" width="8" height="4" fill="#30212a"/><rect x="32" y="21" width="8" height="4" fill="#30212a"/><rect x="24" y="25" width="4" height="4" fill="#30212a"/><rect x="36" y="25" width="4" height="4" fill="#30212a"/><rect x="28" y="29" width="8" height="2" fill="#bd5d50"/><rect x="20" y="33" width="24" height="4" fill="#b82f32"/><rect x="16" y="35" width="12" height="4" fill="#76242b"/><rect x="12" y="39" width="8" height="4" fill="#b82f32"/><rect x="20" y="37" width="24" height="12" fill="#e6dfcf"/><rect x="16" y="39" width="8" height="8" fill="#a6a9a5"/><rect x="40" y="39" width="8" height="8" fill="#a6a9a5"/><rect x="24" y="37" width="4" height="12" fill="#b82f32"/><rect x="32" y="37" width="4" height="12" fill="#76242b"/><rect x="28" y="41" width="8" height="4" fill="#d6a14b"/><rect x="12" y="43" width="8" height="8" fill="#f6c18a"/><rect x="44" y="35" width="8" height="8" fill="#f6c18a"/><rect x="20" y="45" width="8" height="4" fill="#382a31"/><rect x="36" y="49" width="8" height="4" fill="#382a31"/><rect x="20" y="49" width="12" height="4" fill="#29232c"/><rect x="36" y="53" width="8" height="4" fill="#29232c"/><rect x="44" y="41" width="12" height="4" fill="#d7e3e8"/><rect x="56" y="37" width="4" height="8" fill="#7e929e"/><rect x="44" y="45" width="8" height="4" fill="#d6a14b"/></g><g transform="translate(192 0)"><rect x="16" y="53" width="32" height="4" fill="#4a382b"/><rect x="20" y="9" width="24" height="8" fill="#30212a"/><rect x="16" y="17" width="8" height="12" fill="#30212a"/><rect x="12" y="21" width="8" height="12" fill="#53313a"/><rect x="16" y="29" width="8" height="8" fill="#30212a"/><rect x="28" y="7" width="12" height="4" fill="#b82f32"/><rect x="36" y="7" width="4" height="4" fill="#f06448"/><rect x="20" y="13" width="24" height="20" fill="#30212a"/><rect x="16" y="17" width="32" height="16" fill="#30212a"/><rect x="20" y="17" width="24" height="16" fill="#f6c18a"/><rect x="20" y="29" width="24" height="4" fill="#d98b60"/><rect x="16" y="17" width="8" height="8" fill="#30212a"/><rect x="20" y="13" width="20" height="4" fill="#53313a"/><rect x="24" y="9" width="16" height="4" fill="#30212a"/><rect x="20" y="21" width="8" height="4" fill="#30212a"/><rect x="32" y="21" width="8" height="4" fill="#30212a"/><rect x="24" y="25" width="4" height="4" fill="#30212a"/><rect x="36" y="25" width="4" height="4" fill="#30212a"/><rect x="28" y="29" width="8" height="2" fill="#bd5d50"/><rect x="20" y="33" width="24" height="4" fill="#b82f32"/><rect x="16" y="35" width="12" height="4" fill="#76242b"/><rect x="12" y="39" width="8" height="4" fill="#b82f32"/><rect x="20" y="37" width="24" height="12" fill="#e6dfcf"/><rect x="16" y="39" width="8" height="8" fill="#a6a9a5"/><rect x="40" y="39" width="8" height="8" fill="#a6a9a5"/><rect x="24" y="37" width="4" height="12" fill="#b82f32"/><rect x="32" y="37" width="4" height="12" fill="#76242b"/><rect x="28" y="41" width="8" height="4" fill="#d6a14b"/><rect x="12" y="41" width="8" height="8" fill="#f6c18a"/><rect x="44" y="41" width="8" height="8" fill="#f6c18a"/><rect x="20" y="49" width="8" height="4" fill="#382a31"/><rect x="36" y="49" width="8" height="4" fill="#382a31"/><rect x="16" y="53" width="12" height="4" fill="#29232c"/><rect x="36" y="53" width="12" height="4" fill="#29232c"/><rect x="44" y="41" width="12" height="4" fill="#d7e3e8"/><rect x="56" y="37" width="4" height="8" fill="#7e929e"/><rect x="44" y="45" width="8" height="4" fill="#d6a14b"/></g><g transform="translate(0 64)"><rect x="16" y="53" width="32" height="4" fill="#4a382b"/><rect x="20" y="9" width="24" height="8" fill="#30212a"/><rect x="16" y="17" width="8" height="12" fill="#30212a"/><rect x="12" y="21" width="8" height="12" fill="#53313a"/><rect x="16" y="29" width="8" height="8" fill="#30212a"/><rect x="28" y="7" width="12" height="4" fill="#b82f32"/><rect x="36" y="7" width="4" height="4" fill="#f06448"/><rect x="20" y="13" width="24" height="20" fill="#30212a"/><rect x="16" y="17" width="32" height="16" fill="#30212a"/><rect x="20" y="17" width="24" height="16" fill="#f6c18a"/><rect x="20" y="29" width="24" height="4" fill="#d98b60"/><rect x="16" y="17" width="8" height="8" fill="#30212a"/><rect x="20" y="13" width="20" height="4" fill="#53313a"/><rect x="24" y="9" width="16" height="4" fill="#30212a"/><rect x="20" y="21" width="8" height="4" fill="#30212a"/><rect x="32" y="21" width="8" height="4" fill="#30212a"/><rect x="36" y="25" width="4" height="4" fill="#30212a"/><rect x="28" y="29" width="8" height="2" fill="#bd5d50"/><rect x="20" y="33" width="24" height="4" fill="#b82f32"/><rect x="16" y="35" width="12" height="4" fill="#76242b"/><rect x="12" y="39" width="8" height="4" fill="#b82f32"/><rect x="20" y="37" width="24" height="12" fill="#e6dfcf"/><rect x="16" y="39" width="8" height="8" fill="#a6a9a5"/><rect x="40" y="39" width="8" height="8" fill="#a6a9a5"/><rect x="24" y="37" width="4" height="12" fill="#b82f32"/><rect x="32" y="37" width="4" height="12" fill="#76242b"/><rect x="28" y="41" width="8" height="4" fill="#d6a14b"/><rect x="12" y="39" width="8" height="8" fill="#f6c18a"/><rect x="44" y="39" width="8" height="8" fill="#f6c18a"/><rect x="20" y="49" width="8" height="4" fill="#382a31"/><rect x="36" y="49" width="8" height="4" fill="#382a31"/><rect x="20" y="53" width="8" height="4" fill="#29232c"/><rect x="36" y="53" width="8" height="4" fill="#29232c"/><rect x="44" y="41" width="12" height="4" fill="#d7e3e8"/><rect x="56" y="37" width="4" height="8" fill="#7e929e"/><rect x="44" y="45" width="8" height="4" fill="#d6a14b"/></g><g transform="translate(64 64)"><rect x="16" y="53" width="32" height="4" fill="#4a382b"/><rect x="20" y="9" width="24" height="8" fill="#30212a"/><rect x="16" y="17" width="8" height="12" fill="#30212a"/><rect x="12" y="21" width="8" height="12" fill="#53313a"/><rect x="16" y="29" width="8" height="8" fill="#30212a"/><rect x="28" y="7" width="12" height="4" fill="#b82f32"/><rect x="36" y="7" width="4" height="4" fill="#f06448"/><rect x="20" y="13" width="24" height="20" fill="#30212a"/><rect x="16" y="17" width="32" height="16" fill="#30212a"/><rect x="20" y="17" width="24" height="16" fill="#f6c18a"/><rect x="20" y="29" width="24" height="4" fill="#d98b60"/><rect x="16" y="17" width="8" height="8" fill="#30212a"/><rect x="20" y="13" width="20" height="4" fill="#53313a"/><rect x="24" y="9" width="16" height="4" fill="#30212a"/><rect x="20" y="21" width="8" height="4" fill="#30212a"/><rect x="32" y="21" width="8" height="4" fill="#30212a"/><rect x="36" y="25" width="4" height="4" fill="#30212a"/><rect x="28" y="29" width="8" height="2" fill="#bd5d50"/><rect x="20" y="33" width="24" height="4" fill="#b82f32"/><rect x="20" y="35" width="12" height="4" fill="#76242b"/><rect x="16" y="39" width="8" height="4" fill="#b82f32"/><rect x="20" y="37" width="24" height="12" fill="#e6dfcf"/><rect x="16" y="39" width="8" height="8" fill="#a6a9a5"/><rect x="40" y="39" width="8" height="8" fill="#a6a9a5"/><rect x="24" y="37" width="4" height="12" fill="#b82f32"/><rect x="32" y="37" width="4" height="12" fill="#76242b"/><rect x="28" y="41" width="8" height="4" fill="#d6a14b"/><rect x="12" y="35" width="8" height="8" fill="#f6c18a"/><rect x="44" y="43" width="8" height="8" fill="#f6c18a"/><rect x="20" y="49" width="8" height="4" fill="#382a31"/><rect x="36" y="45" width="8" height="4" fill="#382a31"/><rect x="16" y="53" width="12" height="4" fill="#29232c"/><rect x="36" y="49" width="12" height="4" fill="#29232c"/><rect x="44" y="41" width="12" height="4" fill="#d7e3e8"/><rect x="56" y="37" width="4" height="8" fill="#7e929e"/><rect x="44" y="45" width="8" height="4" fill="#d6a14b"/></g><g transform="translate(128 64)"><rect x="16" y="53" width="32" height="4" fill="#4a382b"/><rect x="20" y="9" width="24" height="8" fill="#30212a"/><rect x="16" y="17" width="8" height="12" fill="#30212a"/><rect x="12" y="21" width="8" height="12" fill="#53313a"/><rect x="16" y="29" width="8" height="8" fill="#30212a"/><rect x="28" y="7" width="12" height="4" fill="#b82f32"/><rect x="36" y="7" width="4" height="4" fill="#f06448"/><rect x="20" y="13" width="24" height="20" fill="#30212a"/><rect x="16" y="17" width="32" height="16" fill="#30212a"/><rect x="20" y="17" width="24" height="16" fill="#f6c18a"/><rect x="20" y="29" width="24" height="4" fill="#d98b60"/><rect x="16" y="17" width="8" height="8" fill="#30212a"/><rect x="20" y="13" width="20" height="4" fill="#53313a"/><rect x="24" y="9" width="16" height="4" fill="#30212a"/><rect x="20" y="21" width="8" height="4" fill="#30212a"/><rect x="32" y="21" width="8" height="4" fill="#30212a"/><rect x="36" y="25" width="4" height="4" fill="#30212a"/><rect x="28" y="29" width="8" height="2" fill="#bd5d50"/><rect x="20" y="33" width="24" height="4" fill="#b82f32"/><rect x="16" y="35" width="12" height="4" fill="#76242b"/><rect x="12" y="39" width="8" height="4" fill="#b82f32"/><rect x="20" y="37" width="24" height="12" fill="#e6dfcf"/><rect x="16" y="39" width="8" height="8" fill="#a6a9a5"/><rect x="40" y="39" width="8" height="8" fill="#a6a9a5"/><rect x="24" y="37" width="4" height="12" fill="#b82f32"/><rect x="32" y="37" width="4" height="12" fill="#76242b"/><rect x="28" y="41" width="8" height="4" fill="#d6a14b"/><rect x="12" y="43" width="8" height="8" fill="#f6c18a"/><rect x="44" y="35" width="8" height="8" fill="#f6c18a"/><rect x="20" y="45" width="8" height="4" fill="#382a31"/><rect x="36" y="49" width="8" height="4" fill="#382a31"/><rect x="20" y="49" width="12" height="4" fill="#29232c"/><rect x="36" y="53" width="8" height="4" fill="#29232c"/><rect x="44" y="41" width="12" height="4" fill="#d7e3e8"/><rect x="56" y="37" width="4" height="8" fill="#7e929e"/><rect x="44" y="45" width="8" height="4" fill="#d6a14b"/></g><g transform="translate(192 64)"><rect x="16" y="53" width="32" height="4" fill="#4a382b"/><rect x="20" y="9" width="24" height="8" fill="#30212a"/><rect x="16" y="17" width="8" height="12" fill="#30212a"/><rect x="12" y="21" width="8" height="12" fill="#53313a"/><rect x="16" y="29" width="8" height="8" fill="#30212a"/><rect x="28" y="7" width="12" height="4" fill="#b82f32"/><rect x="36" y="7" width="4" height="4" fill="#f06448"/><rect x="20" y="13" width="24" height="20" fill="#30212a"/><rect x="16" y="17" width="32" height="16" fill="#30212a"/><rect x="20" y="17" width="24" height="16" fill="#f6c18a"/><rect x="20" y="29" width="24" height="4" fill="#d98b60"/><rect x="16" y="17" width="8" height="8" fill="#30212a"/><rect x="20" y="13" width="20" height="4" fill="#53313a"/><rect x="24" y="9" width="16" height="4" fill="#30212a"/><rect x="20" y="21" width="8" height="4" fill="#30212a"/><rect x="32" y="21" width="8" height="4" fill="#30212a"/><rect x="36" y="25" width="4" height="4" fill="#30212a"/><rect x="28" y="29" width="8" height="2" fill="#bd5d50"/><rect x="20" y="33" width="24" height="4" fill="#b82f32"/><rect x="16" y="35" width="12" height="4" fill="#76242b"/><rect x="12" y="39" width="8" height="4" fill="#b82f32"/><rect x="20" y="37" width="24" height="12" fill="#e6dfcf"/><rect x="16" y="39" width="8" height="8" fill="#a6a9a5"/><rect x="40" y="39" width="8" height="8" fill="#a6a9a5"/><rect x="24" y="37" width="4" height="12" fill="#b82f32"/><rect x="32" y="37" width="4" height="12" fill="#76242b"/><rect x="28" y="41" width="8" height="4" fill="#d6a14b"/><rect x="12" y="41" width="8" height="8" fill="#f6c18a"/><rect x="44" y="41" width="8" height="8" fill="#f6c18a"/><rect x="20" y="49" width="8" height="4" fill="#382a31"/><rect x="36" y="49" width="8" height="4" fill="#382a31"/><rect x="16" y="53" width="12" height="4" fill="#29232c"/><rect x="36" y="53" width="12" height="4" fill="#29232c"/><rect x="44" y="41" width="12" height="4" fill="#d7e3e8"/><rect x="56" y="37" width="4" height="8" fill="#7e929e"/><rect x="44" y="45" width="8" height="4" fill="#d6a14b"/></g><g transform="translate(0 128)"><rect x="16" y="53" width="32" height="4" fill="#4a382b"/><rect x="20" y="9" width="24" height="8" fill="#30212a"/><rect x="16" y="17" width="8" height="12" fill="#30212a"/><rect x="12" y="21" width="8" height="12" fill="#53313a"/><rect x="16" y="29" width="8" height="8" fill="#30212a"/><rect x="28" y="7" width="12" height="4" fill="#b82f32"/><rect x="36" y="7" width="4" height="4" fill="#f06448"/><rect x="20" y="13" width="24" height="20" fill="#30212a"/><rect x="16" y="17" width="32" height="16" fill="#30212a"/><rect x="20" y="17" width="24" height="16" fill="#f6c18a"/><rect x="20" y="29" width="24" height="4" fill="#d98b60"/><rect x="16" y="17" width="8" height="8" fill="#30212a"/><rect x="20" y="13" width="20" height="4" fill="#53313a"/><rect x="24" y="9" width="16" height="4" fill="#30212a"/><rect x="20" y="21" width="8" height="4" fill="#30212a"/><rect x="32" y="21" width="8" height="4" fill="#30212a"/><rect x="24" y="25" width="4" height="4" fill="#30212a"/><rect x="28" y="29" width="8" height="2" fill="#bd5d50"/><rect x="20" y="33" width="24" height="4" fill="#b82f32"/><rect x="16" y="35" width="12" height="4" fill="#76242b"/><rect x="12" y="39" width="8" height="4" fill="#b82f32"/><rect x="20" y="37" width="24" height="12" fill="#e6dfcf"/><rect x="16" y="39" width="8" height="8" fill="#a6a9a5"/><rect x="40" y="39" width="8" height="8" fill="#a6a9a5"/><rect x="24" y="37" width="4" height="12" fill="#b82f32"/><rect x="32" y="37" width="4" height="12" fill="#76242b"/><rect x="28" y="41" width="8" height="4" fill="#d6a14b"/><rect x="12" y="39" width="8" height="8" fill="#f6c18a"/><rect x="44" y="39" width="8" height="8" fill="#f6c18a"/><rect x="20" y="49" width="8" height="4" fill="#382a31"/><rect x="36" y="49" width="8" height="4" fill="#382a31"/><rect x="20" y="53" width="8" height="4" fill="#29232c"/><rect x="36" y="53" width="8" height="4" fill="#29232c"/><rect x="8" y="41" width="12" height="4" fill="#d7e3e8"/><rect x="4" y="37" width="4" height="8" fill="#7e929e"/><rect x="8" y="45" width="8" height="4" fill="#d6a14b"/></g><g transform="translate(64 128)"><rect x="16" y="53" width="32" height="4" fill="#4a382b"/><rect x="20" y="9" width="24" height="8" fill="#30212a"/><rect x="16" y="17" width="8" height="12" fill="#30212a"/><rect x="12" y="21" width="8" height="12" fill="#53313a"/><rect x="16" y="29" width="8" height="8" fill="#30212a"/><rect x="28" y="7" width="12" height="4" fill="#b82f32"/><rect x="36" y="7" width="4" height="4" fill="#f06448"/><rect x="20" y="13" width="24" height="20" fill="#30212a"/><rect x="16" y="17" width="32" height="16" fill="#30212a"/><rect x="20" y="17" width="24" height="16" fill="#f6c18a"/><rect x="20" y="29" width="24" height="4" fill="#d98b60"/><rect x="16" y="17" width="8" height="8" fill="#30212a"/><rect x="20" y="13" width="20" height="4" fill="#53313a"/><rect x="24" y="9" width="16" height="4" fill="#30212a"/><rect x="20" y="21" width="8" height="4" fill="#30212a"/><rect x="32" y="21" width="8" height="4" fill="#30212a"/><rect x="24" y="25" width="4" height="4" fill="#30212a"/><rect x="28" y="29" width="8" height="2" fill="#bd5d50"/><rect x="20" y="33" width="24" height="4" fill="#b82f32"/><rect x="20" y="35" width="12" height="4" fill="#76242b"/><rect x="16" y="39" width="8" height="4" fill="#b82f32"/><rect x="20" y="37" width="24" height="12" fill="#e6dfcf"/><rect x="16" y="39" width="8" height="8" fill="#a6a9a5"/><rect x="40" y="39" width="8" height="8" fill="#a6a9a5"/><rect x="24" y="37" width="4" height="12" fill="#b82f32"/><rect x="32" y="37" width="4" height="12" fill="#76242b"/><rect x="28" y="41" width="8" height="4" fill="#d6a14b"/><rect x="12" y="35" width="8" height="8" fill="#f6c18a"/><rect x="44" y="43" width="8" height="8" fill="#f6c18a"/><rect x="20" y="49" width="8" height="4" fill="#382a31"/><rect x="36" y="45" width="8" height="4" fill="#382a31"/><rect x="16" y="53" width="12" height="4" fill="#29232c"/><rect x="36" y="49" width="12" height="4" fill="#29232c"/><rect x="8" y="41" width="12" height="4" fill="#d7e3e8"/><rect x="4" y="37" width="4" height="8" fill="#7e929e"/><rect x="8" y="45" width="8" height="4" fill="#d6a14b"/></g><g transform="translate(128 128)"><rect x="16" y="53" width="32" height="4" fill="#4a382b"/><rect x="20" y="9" width="24" height="8" fill="#30212a"/><rect x="16" y="17" width="8" height="12" fill="#30212a"/><rect x="12" y="21" width="8" height="12" fill="#53313a"/><rect x="16" y="29" width="8" height="8" fill="#30212a"/><rect x="28" y="7" width="12" height="4" fill="#b82f32"/><rect x="36" y="7" width="4" height="4" fill="#f06448"/><rect x="20" y="13" width="24" height="20" fill="#30212a"/><rect x="16" y="17" width="32" height="16" fill="#30212a"/><rect x="20" y="17" width="24" height="16" fill="#f6c18a"/><rect x="20" y="29" width="24" height="4" fill="#d98b60"/><rect x="16" y="17" width="8" height="8" fill="#30212a"/><rect x="20" y="13" width="20" height="4" fill="#53313a"/><rect x="24" y="9" width="16" height="4" fill="#30212a"/><rect x="20" y="21" width="8" height="4" fill="#30212a"/><rect x="32" y="21" width="8" height="4" fill="#30212a"/><rect x="24" y="25" width="4" height="4" fill="#30212a"/><rect x="28" y="29" width="8" height="2" fill="#bd5d50"/><rect x="20" y="33" width="24" height="4" fill="#b82f32"/><rect x="16" y="35" width="12" height="4" fill="#76242b"/><rect x="12" y="39" width="8" height="4" fill="#b82f32"/><rect x="20" y="37" width="24" height="12" fill="#e6dfcf"/><rect x="16" y="39" width="8" height="8" fill="#a6a9a5"/><rect x="40" y="39" width="8" height="8" fill="#a6a9a5"/><rect x="24" y="37" width="4" height="12" fill="#b82f32"/><rect x="32" y="37" width="4" height="12" fill="#76242b"/><rect x="28" y="41" width="8" height="4" fill="#d6a14b"/><rect x="12" y="43" width="8" height="8" fill="#f6c18a"/><rect x="44" y="35" width="8" height="8" fill="#f6c18a"/><rect x="20" y="45" width="8" height="4" fill="#382a31"/><rect x="36" y="49" width="8" height="4" fill="#382a31"/><rect x="20" y="49" width="12" height="4" fill="#29232c"/><rect x="36" y="53" width="8" height="4" fill="#29232c"/><rect x="8" y="41" width="12" height="4" fill="#d7e3e8"/><rect x="4" y="37" width="4" height="8" fill="#7e929e"/><rect x="8" y="45" width="8" height="4" fill="#d6a14b"/></g><g transform="translate(192 128)"><rect x="16" y="53" width="32" height="4" fill="#4a382b"/><rect x="20" y="9" width="24" height="8" fill="#30212a"/><rect x="16" y="17" width="8" height="12" fill="#30212a"/><rect x="12" y="21" width="8" height="12" fill="#53313a"/><rect x="16" y="29" width="8" height="8" fill="#30212a"/><rect x="28" y="7" width="12" height="4" fill="#b82f32"/><rect x="36" y="7" width="4" height="4" fill="#f06448"/><rect x="20" y="13" width="24" height="20" fill="#30212a"/><rect x="16" y="17" width="32" height="16" fill="#30212a"/><rect x="20" y="17" width="24" height="16" fill="#f6c18a"/><rect x="20" y="29" width="24" height="4" fill="#d98b60"/><rect x="16" y="17" width="8" height="8" fill="#30212a"/><rect x="20" y="13" width="20" height="4" fill="#53313a"/><rect x="24" y="9" width="16" height="4" fill="#30212a"/><rect x="20" y="21" width="8" height="4" fill="#30212a"/><rect x="32" y="21" width="8" height="4" fill="#30212a"/><rect x="24" y="25" width="4" height="4" fill="#30212a"/><rect x="28" y="29" width="8" height="2" fill="#bd5d50"/><rect x="20" y="33" width="24" height="4" fill="#b82f32"/><rect x="16" y="35" width="12" height="4" fill="#76242b"/><rect x="12" y="39" width="8" height="4" fill="#b82f32"/><rect x="20" y="37" width="24" height="12" fill="#e6dfcf"/><rect x="16" y="39" width="8" height="8" fill="#a6a9a5"/><rect x="40" y="39" width="8" height="8" fill="#a6a9a5"/><rect x="24" y="37" width="4" height="12" fill="#b82f32"/><rect x="32" y="37" width="4" height="12" fill="#76242b"/><rect x="28" y="41" width="8" height="4" fill="#d6a14b"/><rect x="12" y="41" width="8" height="8" fill="#f6c18a"/><rect x="44" y="41" width="8" height="8" fill="#f6c18a"/><rect x="20" y="49" width="8" height="4" fill="#382a31"/><rect x="36" y="49" width="8" height="4" fill="#382a31"/><rect x="16" y="53" width="12" height="4" fill="#29232c"/><rect x="36" y="53" width="12" height="4" fill="#29232c"/><rect x="8" y="41" width="12" height="4" fill="#d7e3e8"/><rect x="4" y="37" width="4" height="8" fill="#7e929e"/><rect x="8" y="45" width="8" height="4" fill="#d6a14b"/></g><g transform="translate(0 192)"><rect x="16" y="53" width="32" height="4" fill="#4a382b"/><rect x="20" y="9" width="24" height="8" fill="#30212a"/><rect x="16" y="17" width="8" height="12" fill="#30212a"/><rect x="12" y="21" width="8" height="12" fill="#53313a"/><rect x="16" y="29" width="8" height="8" fill="#30212a"/><rect x="28" y="7" width="12" height="4" fill="#b82f32"/><rect x="36" y="7" width="4" height="4" fill="#f06448"/><rect x="20" y="13" width="24" height="20" fill="#30212a"/><rect x="16" y="17" width="32" height="16" fill="#30212a"/><rect x="20" y="17" width="24" height="16" fill="#f6c18a"/><rect x="20" y="29" width="24" height="4" fill="#d98b60"/><rect x="16" y="17" width="8" height="8" fill="#30212a"/><rect x="20" y="13" width="20" height="4" fill="#53313a"/><rect x="24" y="9" width="16" height="4" fill="#30212a"/><rect x="20" y="21" width="8" height="4" fill="#30212a"/><rect x="32" y="21" width="8" height="4" fill="#30212a"/><rect x="24" y="25" width="16" height="5" fill="#30212a"/><rect x="20" y="33" width="24" height="4" fill="#b82f32"/><rect x="16" y="35" width="12" height="4" fill="#76242b"/><rect x="12" y="39" width="8" height="4" fill="#b82f32"/><rect x="20" y="37" width="24" height="12" fill="#e6dfcf"/><rect x="16" y="39" width="8" height="8" fill="#a6a9a5"/><rect x="40" y="39" width="8" height="8" fill="#a6a9a5"/><rect x="24" y="37" width="4" height="12" fill="#b82f32"/><rect x="32" y="37" width="4" height="12" fill="#76242b"/><rect x="28" y="41" width="8" height="4" fill="#d6a14b"/><rect x="12" y="39" width="8" height="8" fill="#f6c18a"/><rect x="44" y="39" width="8" height="8" fill="#f6c18a"/><rect x="20" y="49" width="8" height="4" fill="#382a31"/><rect x="36" y="49" width="8" height="4" fill="#382a31"/><rect x="20" y="53" width="8" height="4" fill="#29232c"/><rect x="36" y="53" width="8" height="4" fill="#29232c"/></g><g transform="translate(64 192)"><rect x="16" y="53" width="32" height="4" fill="#4a382b"/><rect x="20" y="9" width="24" height="8" fill="#30212a"/><rect x="16" y="17" width="8" height="12" fill="#30212a"/><rect x="12" y="21" width="8" height="12" fill="#53313a"/><rect x="16" y="29" width="8" height="8" fill="#30212a"/><rect x="28" y="7" width="12" height="4" fill="#b82f32"/><rect x="36" y="7" width="4" height="4" fill="#f06448"/><rect x="20" y="13" width="24" height="20" fill="#30212a"/><rect x="16" y="17" width="32" height="16" fill="#30212a"/><rect x="20" y="17" width="24" height="16" fill="#f6c18a"/><rect x="20" y="29" width="24" height="4" fill="#d98b60"/><rect x="16" y="17" width="8" height="8" fill="#30212a"/><rect x="20" y="13" width="20" height="4" fill="#53313a"/><rect x="24" y="9" width="16" height="4" fill="#30212a"/><rect x="20" y="21" width="8" height="4" fill="#30212a"/><rect x="32" y="21" width="8" height="4" fill="#30212a"/><rect x="24" y="25" width="16" height="5" fill="#30212a"/><rect x="20" y="33" width="24" height="4" fill="#b82f32"/><rect x="20" y="35" width="12" height="4" fill="#76242b"/><rect x="16" y="39" width="8" height="4" fill="#b82f32"/><rect x="20" y="37" width="24" height="12" fill="#e6dfcf"/><rect x="16" y="39" width="8" height="8" fill="#a6a9a5"/><rect x="40" y="39" width="8" height="8" fill="#a6a9a5"/><rect x="24" y="37" width="4" height="12" fill="#b82f32"/><rect x="32" y="37" width="4" height="12" fill="#76242b"/><rect x="28" y="41" width="8" height="4" fill="#d6a14b"/><rect x="12" y="35" width="8" height="8" fill="#f6c18a"/><rect x="44" y="43" width="8" height="8" fill="#f6c18a"/><rect x="20" y="49" width="8" height="4" fill="#382a31"/><rect x="36" y="45" width="8" height="4" fill="#382a31"/><rect x="16" y="53" width="12" height="4" fill="#29232c"/><rect x="36" y="49" width="12" height="4" fill="#29232c"/></g><g transform="translate(128 192)"><rect x="16" y="53" width="32" height="4" fill="#4a382b"/><rect x="20" y="9" width="24" height="8" fill="#30212a"/><rect x="16" y="17" width="8" height="12" fill="#30212a"/><rect x="12" y="21" width="8" height="12" fill="#53313a"/><rect x="16" y="29" width="8" height="8" fill="#30212a"/><rect x="28" y="7" width="12" height="4" fill="#b82f32"/><rect x="36" y="7" width="4" height="4" fill="#f06448"/><rect x="20" y="13" width="24" height="20" fill="#30212a"/><rect x="16" y="17" width="32" height="16" fill="#30212a"/><rect x="20" y="17" width="24" height="16" fill="#f6c18a"/><rect x="20" y="29" width="24" height="4" fill="#d98b60"/><rect x="16" y="17" width="8" height="8" fill="#30212a"/><rect x="20" y="13" width="20" height="4" fill="#53313a"/><rect x="24" y="9" width="16" height="4" fill="#30212a"/><rect x="20" y="21" width="8" height="4" fill="#30212a"/><rect x="32" y="21" width="8" height="4" fill="#30212a"/><rect x="24" y="25" width="16" height="5" fill="#30212a"/><rect x="20" y="33" width="24" height="4" fill="#b82f32"/><rect x="16" y="35" width="12" height="4" fill="#76242b"/><rect x="12" y="39" width="8" height="4" fill="#b82f32"/><rect x="20" y="37" width="24" height="12" fill="#e6dfcf"/><rect x="16" y="39" width="8" height="8" fill="#a6a9a5"/><rect x="40" y="39" width="8" height="8" fill="#a6a9a5"/><rect x="24" y="37" width="4" height="12" fill="#b82f32"/><rect x="32" y="37" width="4" height="12" fill="#76242b"/><rect x="28" y="41" width="8" height="4" fill="#d6a14b"/><rect x="12" y="43" width="8" height="8" fill="#f6c18a"/><rect x="44" y="35" width="8" height="8" fill="#f6c18a"/><rect x="20" y="45" width="8" height="4" fill="#382a31"/><rect x="36" y="49" width="8" height="4" fill="#382a31"/><rect x="20" y="49" width="12" height="4" fill="#29232c"/><rect x="36" y="53" width="8" height="4" fill="#29232c"/></g><g transform="translate(192 192)"><rect x="16" y="53" width="32" height="4" fill="#4a382b"/><rect x="20" y="9" width="24" height="8" fill="#30212a"/><rect x="16" y="17" width="8" height="12" fill="#30212a"/><rect x="12" y="21" width="8" height="12" fill="#53313a"/><rect x="16" y="29" width="8" height="8" fill="#30212a"/><rect x="28" y="7" width="12" height="4" fill="#b82f32"/><rect x="36" y="7" width="4" height="4" fill="#f06448"/><rect x="20" y="13" width="24" height="20" fill="#30212a"/><rect x="16" y="17" width="32" height="16" fill="#30212a"/><rect x="20" y="17" width="24" height="16" fill="#f6c18a"/><rect x="20" y="29" width="24" height="4" fill="#d98b60"/><rect x="16" y="17" width="8" height="8" fill="#30212a"/><rect x="20" y="13" width="20" height="4" fill="#53313a"/><rect x="24" y="9" width="16" height="4" fill="#30212a"/><rect x="20" y="21" width="8" height="4" fill="#30212a"/><rect x="32" y="21" width="8" height="4" fill="#30212a"/><rect x="24" y="25" width="16" height="5" fill="#30212a"/><rect x="20" y="33" width="24" height="4" fill="#b82f32"/><rect x="16" y="35" width="12" height="4" fill="#76242b"/><rect x="12" y="39" width="8" height="4" fill="#b82f32"/><rect x="20" y="37" width="24" height="12" fill="#e6dfcf"/><rect x="16" y="39" width="8" height="8" fill="#a6a9a5"/><rect x="40" y="39" width="8" height="8" fill="#a6a9a5"/><rect x="24" y="37" width="4" height="12" fill="#b82f32"/><rect x="32" y="37" width="4" height="12" fill="#76242b"/><rect x="28" y="41" width="8" height="4" fill="#d6a14b"/><rect x="12" y="41" width="8" height="8" fill="#f6c18a"/><rect x="44" y="41" width="8" height="8" fill="#f6c18a"/><rect x="20" y="49" width="8" height="4" fill="#382a31"/><rect x="36" y="49" width="8" height="4" fill="#382a31"/><rect x="16" y="53" width="12" height="4" fill="#29232c"/><rect x="36" y="53" width="12" height="4" fill="#29232c"/></g></svg>